<!-- By Sam Herbert (@sherb), for everyone. More @ http://goo.gl/7AJzbL -->
<svg version="1.0" xmlns="http://www.w3.org/2000/svg"
 width="1920.000000pt" height="1080.000000pt" viewBox="0 0 1920.000000 1080.000000"
 preserveAspectRatio="xMidYMid meet">

<g transform="translate(0.000000,1080.000000) scale(0.100000,-0.100000)"
fill="#000000" stroke="none">
<path d="M9040 8290 c-773 -73 -1396 -357 -1885 -861 -389 -401 -638 -906
-739 -1499 -127 -745 21 -1544 398 -2138 202 -318 456 -576 781 -793 384 -257
826 -414 1335 -476 198 -23 590 -23 790 1 499 59 955 220 1326 468 186 124
273 196 429 352 282 284 493 623 630 1016 43 123 103 352 112 428 l6 52 -582
-2 -582 -3 -39 -118 c-200 -595 -667 -1007 -1284 -1132 -270 -54 -542 -54
-812 0 -617 125 -1093 541 -1289 1127 -19 58 -35 111 -35 117 0 8 457 11 1730
11 l1729 0 10 38 c78 297 77 764 -2 1024 -8 26 -12 49 -9 52 3 4 266 6 584 6
572 0 578 0 578 20 0 33 -38 197 -76 325 -130 440 -368 842 -688 1160 -145
144 -247 228 -421 343 -374 249 -802 404 -1296 467 -146 19 -561 28 -699 15z
m481 -1040 c727 -74 1279 -513 1500 -1195 16 -49 29 -90 29 -92 0 -2 -774 -3
-1720 -3 -1423 0 -1720 2 -1720 13 0 27 64 205 106 295 200 430 550 742 1001
892 259 86 535 117 804 90z"/>
<path d="M16015 8294 c-660 -53 -1230 -268 -1695 -640 -107 -86 -306 -284
-390 -389 -174 -215 -356 -536 -450 -795 -42 -116 -112 -375 -125 -462 l-7
-48 590 0 589 0 33 103 c103 328 325 642 599 848 488 367 1208 451 1806 212
513 -205 872 -630 1019 -1203 82 -321 89 -676 20 -988 -47 -211 -138 -437
-241 -599 -242 -383 -644 -654 -1107 -748 -524 -106 -1075 -1 -1476 283 -122
85 -306 270 -393 392 -84 120 -185 322 -233 468 l-37 112 -585 0 -585 0 7 -52
c4 -29 25 -120 46 -203 210 -824 762 -1475 1541 -1818 288 -127 600 -208 954
-249 164 -18 569 -15 745 6 275 33 516 89 760 178 246 90 572 273 774 435 110
89 310 288 399 398 511 633 730 1532 581 2395 -81 476 -254 887 -523 1249
-117 157 -374 416 -523 527 -429 319 -904 504 -1478 574 -89 11 -528 21 -615
14z"/>
<path d="M0 5405 l0 -2815 560 0 560 0 2 1910 3 1909 1545 -1907 1546 -1907
517 -3 517 -2 0 2815 0 2815 -560 0 -560 0 -2 -1926 -3 -1926 -1550 1923
-1551 1924 -512 3 -512 2 0 -2815z"/>
</g>
</svg>